<svg xmlns="http://www.w3.org/2000/svg" viewBox="0 0 117.22 117.22"><defs><style>.cls-1{fill:#fff;}</style></defs><title>Asset 1</title><g id="Layer_2" data-name="Layer 2"><g id="Logotype"><path class="cls-1" d="M112.71,4.49l0,0,0,108.21-108.22,0,0-108.22H112.71m0-4.49H4.52A4.52,4.52,0,0,0,0,4.52V112.71a4.51,4.51,0,0,0,4.52,4.51H112.71a4.51,4.51,0,0,0,4.51-4.51V4.52A4.51,4.51,0,0,0,112.71,0ZM40.91,74.83c0-5.59-1.48-7.88-7.2-13.82C26.63,53.24,24,49.36,24,39V31.77c0-10.63,2.51-13.71,12.22-13.71H41c9.71,0,12.22,3.08,12.22,13.71V46.05H41.71V33.25c0-2.63-.34-3.54-2.4-3.54h-.68c-2.06,0-2.4.91-2.4,3.31v6.4c0,5.71,1.48,7.88,7.2,13.94,7.08,7.65,9.82,11.53,9.82,21.93V85.46c0,10.62-2.51,13.71-12.22,13.71h-4.8C26.52,99.17,24,96.08,24,85.46V68H35.54V84c0,2.63.23,3.54,2.4,3.54h.69c2,0,2.28-.91,2.28-3.54ZM60.36,64.44H55.75V52.79h4.61V18.63H81c9.71,0,12.23,3.08,12.23,13.71V84.89c0,10.62-2.52,13.7-12.23,13.7H60.36Zm18.12,22.5c2.17,0,2.4-.91,2.4-3.54V33.82c0-2.63-.23-3.54-2.4-3.54H72.7V52.79h5.35V64.44H72.7v22.5Z"/></g></g></svg>