<svg xmlns="http://www.w3.org/2000/svg" viewBox="0 0 337.1 70.88"><title>Asset 1</title><g id="Layer_2" data-name="Layer 2"><g id="Logotype"><path d="M140.09,9.07a12,12,0,1,1-12,12A12,12,0,0,1,140.09,9.07Zm0,20.64a8.66,8.66,0,1,0-8.62-8.62A8.66,8.66,0,0,0,140.09,29.71ZM154.18,10a.63.63,0,0,1,.63-.63h13.32a.63.63,0,0,1,.63.63V11.9a.63.63,0,0,1-.63.63H157.61v7.69h8.89a.65.65,0,0,1,.63.63v1.84a.65.65,0,0,1-.63.63h-8.89v8.76a.66.66,0,0,1-.64.63h-2.16a.63.63,0,0,1-.63-.63ZM133,39.62H127.6A.63.63,0,0,1,127,39V37.12a.63.63,0,0,1,.63-.63h14.32a.64.64,0,0,1,.64.63V39a.64.64,0,0,1-.64.63H136.5V59.17a.66.66,0,0,1-.64.63h-2.2a.65.65,0,0,1-.63-.63Zm11.12-2.5a.66.66,0,0,1,.64-.63H147a.64.64,0,0,1,.64.63v9.29h10.22V37.12a.63.63,0,0,1,.63-.63h2.2a.65.65,0,0,1,.63.63V59.17a.65.65,0,0,1-.63.63h-2.2a.63.63,0,0,1-.63-.63V49.54H147.62v9.63a.64.64,0,0,1-.64.63h-2.19a.66.66,0,0,1-.64-.63Zm20.95,0a.63.63,0,0,1,.63-.63h12.5a.64.64,0,0,1,.64.63V39a.64.64,0,0,1-.64.63h-9.7v6.79h8.07a.65.65,0,0,1,.63.63v1.87a.63.63,0,0,1-.63.63h-8.07V56.7h9.7a.64.64,0,0,1,.64.63v1.84a.64.64,0,0,1-.64.63h-12.5a.63.63,0,0,1-.63-.63ZM14.78,49.62c0-4.9-1.3-6.89-6.29-12.08C2.3,30.75,0,27.35,0,18.27V12C0,2.7,2.2,0,10.68,0h4.19c8.49,0,10.69,2.7,10.69,12V24.46H15.47V13.28c0-2.3-.3-3.1-2.09-3.1h-.6c-1.8,0-2.1.8-2.1,2.9v5.59c0,5,1.3,6.89,6.29,12.18,6.19,6.69,8.59,10.08,8.59,19.17V58.9c0,9.28-2.2,12-10.69,12H10.68C2.2,70.88,0,68.18,0,58.9V43.63H10.08v14c0,2.3.2,3.1,2.1,3.1h.6c1.8,0,2-.8,2-3.1ZM32.85,70.38V10.58H27.06V.5H49.42V10.58H43.63v59.8ZM63.9,61.1H57.81L57,70.38H47.32L54,.5H68.89l6.69,69.88H64.7Zm-5.29-9.59H63.1c-1-14.87-1.8-27.15-2.3-39.63C60.3,24.36,59.5,36.64,58.61,51.51ZM79.27,70.38V10.58H73.48V.5H95.84V10.58H90.05v59.8ZM108.72,29h7.49V39.13h-7.49V60.2h9.49V70.38H97.94V.5h20.27V10.68h-9.49Zm83.16,10.18h-4V29h4V.5h18c8.48,0,10.68,2.69,10.68,12V58.4c0,9.29-2.2,12-10.68,12h-18ZM207.71,60.2c1.9,0,2.1-.8,2.1-3.1V13.78c0-2.3-.2-3.1-2.1-3.1h-5.05V29h4.67V39.13h-4.67V60.2Zm31.45.9h-6.09l-.8,9.28h-9.68L229.28.5h14.87l6.69,69.88H240Zm-5.29-9.59h4.49c-1-14.87-1.8-27.15-2.29-39.63C235.57,24.36,234.77,36.64,233.87,51.51ZM253.34.5H269c8.49,0,10.68,2.69,10.68,12V33c0,9.29-2.19,12-10.68,12h-4.89V70.38H253.34Zm13.47,34.34c1.8,0,2.1-.8,2.1-3.09v-18c0-2.3-.3-3.1-2.1-3.1h-2.69V34.84ZM282.69.5h15.67c8.49,0,10.68,2.69,10.68,12V33c0,9.29-2.19,12-10.68,12h-4.89V70.38H282.69Zm13.48,34.34c1.79,0,2.09-.8,2.09-3.09v-18c0-2.3-.3-3.1-2.09-3.1h-2.7V34.84Zm30.15,14.78c0-4.9-1.3-6.89-6.29-12.08-6.19-6.79-8.49-10.19-8.49-19.27V12c0-9.28,2.2-12,10.68-12h4.2c8.48,0,10.68,2.7,10.68,12V24.46H327V13.28c0-2.3-.3-3.1-2.09-3.1h-.6c-1.8,0-2.1.8-2.1,2.9v5.59c0,5,1.3,6.89,6.29,12.18,6.19,6.69,8.59,10.08,8.59,19.17V58.9c0,9.28-2.2,12-10.68,12h-4.2c-8.48,0-10.68-2.7-10.68-12V43.63h10.08v14c0,2.3.2,3.1,2.1,3.1h.6c1.8,0,2-.8,2-3.1Z"/></g></g></svg>