<?xml version="1.0" encoding="UTF-8" standalone="no"?>
<!-- Created with Inkscape (http://www.inkscape.org/) -->

<svg
   xmlns:dc="http://purl.org/dc/elements/1.1/"
   xmlns:cc="http://creativecommons.org/ns#"
   xmlns:rdf="http://www.w3.org/1999/02/22-rdf-syntax-ns#"
   xmlns:svg="http://www.w3.org/2000/svg"
   xmlns="http://www.w3.org/2000/svg"
   xmlns:sodipodi="http://sodipodi.sourceforge.net/DTD/sodipodi-0.dtd"
   xmlns:inkscape="http://www.inkscape.org/namespaces/inkscape"
   width="1061.3289"
   height="666.71735"
   viewBox="0 0 994.99585 625.04749"
   id="svg4352"
   version="1.1"
   inkscape:version="0.92.1 unknown"
   sodipodi:docname="logo.005.crop.WEB.svg"
   inkscape:export-filename="/home/viktor/Dropbox/2.BUS/#IACC/logo/Working/logo.004.crop.png"
   inkscape:export-xdpi="90"
   inkscape:export-ydpi="90">
  <defs
     id="defs4354">
    <clipPath
       id="clipPath4393"
       clipPathUnits="userSpaceOnUse">
      <path stroke="purple"
         inkscape:connector-curvature="0"
         id="path4395"
         d="M 0,842 H 595 V 0 H 0 Z" />
    </clipPath>
  </defs>
  <sodipodi:namedview
     id="base"
     pagecolor="#ffffff"
     bordercolor="#666666"
     borderopacity="1.0"
     inkscape:pageopacity="0.0"
     inkscape:pageshadow="2"
     inkscape:zoom="0.7"
     inkscape:cx="419.1138"
     inkscape:cy="315.07909"
     inkscape:document-units="px"
     inkscape:current-layer="layer1"
     showgrid="true"
     inkscape:window-width="1600"
     inkscape:window-height="876"
     inkscape:window-x="0"
     inkscape:window-y="24"
     inkscape:window-maximized="1"
     units="px"
     borderlayer="false"
     showguides="false"
     fit-margin-top="0"
     fit-margin-left="0"
     fit-margin-right="0"
     fit-margin-bottom="0"
     showborder="true">
    <inkscape:grid
       type="xygrid"
       id="grid4678"
       originx="-3.9296958"
       originy="-208.73813"
       spacingx="1"
       spacingy="1" />
  </sodipodi:namedview>
  <metadata
     id="metadata4357">
    <rdf:RDF>
      <cc:Work
         rdf:about="">
        <dc:format>image/svg+xml</dc:format>
        <dc:type
           rdf:resource="http://purl.org/dc/dcmitype/StillImage" />
        <dc:title></dc:title>
      </cc:Work>
    </rdf:RDF>
  </metadata>
  <g
     inkscape:label="Layer 1"
     inkscape:groupmode="layer"
     id="layer1"
     transform="translate(-3.9296958,-218.57656)">
    <g
       id="g6149"
       transform="matrix(1.4120579,0,0,1.4120579,-206.61723,-214.80961)">
      <path stroke="purple"
         id="path4403"
         transform="translate(0,52.362161)"
         d="m 246.32422,254.55664 c -15.59258,0.16223 -44.18087,30.21232 -60.65625,73.51563 -17.87161,46.96384 -14.72768,91.77227 -0.4082,97.2207 29.18474,11.10038 65.13276,-36.78986 74.80859,-57.2793 59.45175,23.17238 116.98156,45.38652 173.81836,67.23633 0.0431,-0.0876 0.0956,-0.18102 0.11133,-0.25195 0.0462,-0.12882 0.0735,-0.26639 0.13867,-0.38672 0.008,-0.0146 0.0283,-0.0129 0.0488,-0.0117 -0.32147,-0.20771 -0.24918,-0.51063 0.0352,-1.15039 0.14166,-0.31874 0.31738,-0.62128 0.47657,-0.93164 0.0775,-0.15112 0.16732,-0.25921 0.26367,-0.33789 0.0624,-0.33194 0.0937,-0.67722 0.28125,-0.9668 -0.10144,-0.33914 -0.0552,-0.78205 0.24219,-1.28906 0.10077,-0.17186 0.18575,-0.35586 0.29492,-0.52149 0.0263,-0.0817 0.0246,-0.0852 0.0645,-0.20507 0.0533,-0.0884 0.0962,-0.1854 0.14258,-0.2793 3.3e-4,-0.11534 0.13511,-0.30511 0.29101,-0.5 0.0294,-0.10781 0.0615,-0.21327 0.0879,-0.32422 0.0902,-0.37941 0.0756,-0.79253 0.3086,-1.12891 0.15466,-0.71018 0.1916,-0.83619 0.59961,-1.41211 0.0555,-0.0783 0.0447,-0.24811 0.14062,-0.25 0.0167,-4e-4 0.0228,0.0184 0.0274,0.0391 0.022,-0.1748 0.0417,-0.35042 0.0625,-0.52539 0.16192,-0.22248 0.31271,-0.45325 0.48437,-0.66797 0.0874,-0.28649 0.16059,-0.55402 0.28125,-0.91602 0.13835,-0.41502 0.39918,-0.60085 0.70117,-0.6582 0.005,-0.0194 0.006,-0.037 0.0117,-0.0566 h 0.002 c 0.33553,-1.17796 0.25062,-1.10843 0.7539,-2.06836 -0.0158,-0.0481 -0.0483,-0.13045 -0.0254,-0.10352 0.0166,0.0195 0.0276,0.0471 0.043,0.0684 0.0434,-0.0824 0.0741,-0.18597 0.12305,-0.26758 l 0.26953,-1 c 0.24792,-0.0476 0.0446,-0.0136 0.36523,-0.23828 0.0465,-0.46432 0.48061,-0.91581 1.33203,-1.00781 -0.0683,-0.22898 -0.10639,-0.49513 -0.0781,-0.82031 0.0124,-0.14328 0.0624,-0.3407 0.11914,-0.5332 -0.004,-0.002 -0.008,-0.004 -0.0117,-0.006 0.3172,-0.81055 0.30282,-0.83098 0.20312,-0.57032 -0.0527,-0.0699 -0.11441,-0.13262 -0.15624,-0.21093 -0.0241,-0.0451 0.0848,-0.12826 0.25195,-0.22657 -58.18139,-22.32033 -116.36101,-44.64457 -174.54883,-66.95312 6.90999,-22.59851 11.49837,-82.32829 -17.63086,-93.41016 -1.11943,-0.42566 -2.34852,-0.62703 -3.66992,-0.61328 z m 195.7539,161.41406 c -0.0532,0.13919 -0.12644,0.35537 -0.1914,0.57618 0.16796,0.0822 0.33674,0.1625 0.5039,0.24609 -0.001,-0.15721 0.0134,-0.32212 0.0332,-0.25391 0.0435,0.1491 0.0374,0.18962 0.0625,0.30078 0.0589,0.0294 0.11873,0.0568 0.17773,0.0859 0.0651,-0.0716 0.1318,-0.1421 0.19336,-0.2168 -0.28617,-0.22591 -0.56663,-0.45602 -0.7793,-0.73828 z m -2.32226,4.44336 c -0.01,0.0184 -0.008,0.0175 -0.0176,0.0352 0.0174,0.0528 0.0198,0.0756 0.0293,0.11328 l 0.0234,-0.0898 c -0.0122,-0.0191 -0.0222,-0.0406 -0.0352,-0.0586 z M 245.91797,274.93359 c 0.74276,0.0218 1.43413,0.15092 2.06836,0.39258 14.82825,5.64269 21.37875,73.91005 2.44336,66.68555 -5.45768,5.8277 -7.2533,12.43243 -7.38281,19.38867 19.17589,7.47425 -31.46887,52.98543 -45.88086,47.5 -10.14759,-3.85738 -12.2378,-38.88853 1.79492,-75.76953 13.16435,-34.57593 35.81556,-58.52461 46.95703,-58.19727 z m 199.75391,147.70118 c -10e-4,0.002 -0.002,0.004 -0.004,0.006 -0.0236,0.052 -0.0472,0.10407 -0.0703,0.15626 0.004,-0.005 0.009,-0.007 0.0117,-0.0117 0.0308,-0.045 0.048,-0.10503 0.0625,-0.15039 z m -3.22852,5.08398 c -0.003,0.006 -0.005,0.0131 -0.008,0.0195 -0.0588,0.13953 -0.10877,0.28248 -0.15821,0.42578 0.0496,-0.0566 0.0978,-0.11413 0.14844,-0.16992 0.005,-0.0919 0.0117,-0.1836 0.0176,-0.27539 z m -2.63477,1.61523 c -0.0161,0.0274 -0.0647,0.10841 -0.0469,0.082 l 0.0352,-0.0547 c 0.004,-0.009 0.008,-0.0182 0.0117,-0.0274 z m -1.51562,4.2129 c -0.0104,0.0438 -0.0235,0.0873 -0.0352,0.13085 0.01,-0.0116 0.004,-8.2e-4 0.0156,-0.0156 0.0166,-0.0211 0.0287,-0.0633 0.041,-0.0977 -0.007,-0.006 -0.0146,-0.0113 -0.0215,-0.0176 z m -1.92578,1.625 c -0.002,0.0146 -0.004,0.008 -0.15625,0.35156 -0.007,0.009 -0.0127,0.0104 -0.0215,0.0254 -0.004,0.0357 -0.008,0.0718 -0.008,0.10547 -8.6e-4,0.15591 -0.0183,0.31084 -0.0488,0.46093 0.0782,0.0301 0.1581,0.0617 0.23633,0.0918 -0.0157,-0.34319 -0.0109,-0.68391 0.0684,-1.01953 -0.0222,-0.002 -0.0475,-0.0134 -0.0703,-0.0156 z m 3.29883,0.0918 c -0.0342,0.0696 -0.0604,0.14241 -0.0977,0.21094 -0.17291,0.355 -0.34932,0.73058 -0.54297,1.0957 -0.0565,0.19199 -0.11,0.38382 -0.19922,0.56446 -0.006,0.012 -0.004,0.004 -0.01,0.0156 0.006,0.002 0.0118,0.004 0.0176,0.006 0.21266,-0.45543 0.47777,-0.94504 0.8086,-1.48047 0.003,-0.13786 0.015,-0.27476 0.0234,-0.41211 z m 129.67382,29.02539 c -0.0241,0.19016 -0.0858,0.37837 -0.25976,0.70703 -0.0527,0.0995 -0.14856,0.30088 -0.22852,0.35938 -0.038,0.0836 -0.0842,0.19137 -0.0996,0.22461 -0.34087,0.16519 0.0526,-0.0479 -0.20117,0.90625 -0.25026,0.94084 -0.12654,0.16919 -0.37305,0.68945 -0.0735,0.15511 -0.1093,0.32587 -0.17968,0.48242 -0.0196,0.0437 -0.058,0.0759 -0.0879,0.11328 -0.11867,0.43862 -0.2352,0.99515 -0.37305,0.97852 -0.009,-10e-4 -0.005,-0.0177 -0.01,-0.0234 -0.0731,0.32951 -0.0985,0.52316 -0.43554,0.85742 -0.0255,0.0252 0.004,-0.0717 0.006,-0.10742 -0.89527,1.60622 -0.007,0.13209 -0.46094,0.72071 -0.0524,0.068 -0.0598,0.25087 -0.13867,0.21679 -0.008,-0.004 -0.007,-0.0187 -0.0117,-0.0273 -0.0655,0.44736 0.009,0.28067 -0.35352,1.06055 -0.0653,0.0854 -0.43663,0.57385 -0.45703,0.58984 -0.0507,0.0398 0.0897,-0.24205 0.0586,-0.18555 -0.24984,0.45522 -0.45229,0.91215 -0.7754,1.32617 -0.21043,-0.16034 -0.0957,0.34503 -0.27343,0.82813 -0.16244,0.44156 -0.40789,0.59539 -0.67383,0.94726 -0.11869,0.15704 -0.22,0.3251 -0.33008,0.48829 -0.33121,0.55501 -0.25158,0.48403 -0.54297,0.83593 -0.0804,0.0971 -0.15317,0.20201 -0.24609,0.28711 -0.0293,0.0268 -0.0885,0.008 -0.11133,0.041 -1.26087,1.80213 0.24755,-0.12515 -0.64258,0.99023 -0.19382,0.44327 -0.3675,0.85264 -0.71289,1.20313 -0.0185,0.0188 0.006,-0.10019 -0.008,-0.0781 -0.75351,1.14238 0.0258,0.16402 -0.59961,0.91797 -0.26921,0.401 -0.29105,0.46941 -0.70117,0.85938 -0.0474,0.0451 0.15154,-0.21248 0.10351,-0.16797 -0.16167,0.14981 -0.27484,0.35098 -0.44726,0.48828 -0.0227,0.0181 0.80567,-1.18719 -0.15235,0.21289 0.007,-0.33034 0.0131,0.0118 -0.4375,0.53906 -0.45401,0.53113 -0.0905,0.004 -0.36328,0.27344 -0.19584,0.19397 -0.3588,0.4186 -0.56836,0.59766 -0.11252,0.0962 -0.25785,0.14595 -0.38672,0.21875 0.44784,-0.7199 0.15477,-0.25943 -0.0644,0.0781 93.40523,35.70656 186.54347,71.16323 283.72266,108.375 12.63593,-2.18308 16.05951,-10.19351 7.52148,-19.76758 C 755.7752,535.74553 662.55273,500.029 569.33984,464.28906 Z m -11.26562,17.34375 c -0.009,0.0356 -0.0272,0.0668 -0.0332,0.10352 -0.006,0.0371 0.0204,-0.0412 0.0332,-0.10352 z m -0.26758,0.16211 c -0.0337,0.0283 -0.0684,0.055 -0.10156,0.084 -0.016,0.0304 -0.0313,0.0612 -0.0469,0.0918 0.009,0.0109 0.0131,0.0187 0.0215,0.0293 l 0.0527,-0.0215 c 0.087,0.0292 0.0895,-0.0994 0.0742,-0.1836 z"
         style="fill:#231f20;fill-opacity:1;fill-rule:evenodd;"
         inkscape:connector-curvature="0" />
      <path stroke="purple"
         d="m 765.1199,543.77462 -9.0283,23.7178 9.93483,3.78338 -22.55226,59.28525 -9.93484,-3.78338 -6.1422,16.13254 -4.95817,-1.89631 -9.20406,24.18957 18.51912,7.04873 6.31797,-16.60431 27.13116,10.32335 -6.31796,16.60431 18.52838,7.04874 6.30871,-16.59506 4.20889,1.59105 9.01906,-23.70855 -6.49372,-2.47908 22.56151,-59.28525 6.49372,2.46983 6.13296,-16.12329 4.96741,1.88706 9.20406,-24.18956 -18.51912,-7.04874 -6.31796,16.60431 -27.14042,-10.32335 6.31796,-16.60431 -18.51912,-7.04874 -6.31797,16.60431 z"
         style="fill:#231f20;fill-opacity:1;fill-rule:evenodd;"
         id="path4407"
         inkscape:connector-curvature="0" />
      <path stroke="purple"
         d="m 765.1199,543.77462 -9.0283,23.7178 9.93483,3.78338 -22.55226,59.28525 -9.93484,-3.78338 -6.1422,16.13254 -4.95817,-1.89631 -9.20406,24.18957 18.51912,7.04873 6.31797,-16.60431 27.13116,10.32335 -6.31796,16.60431 18.52838,7.04874 6.30871,-16.59506 4.20889,1.59105 9.01906,-23.70855 -6.49372,-2.47908 22.56151,-59.28525 6.49372,2.46983 6.13296,-16.12329 4.96741,1.88706 9.20406,-24.18956 -18.51912,-7.04874 -6.31796,16.60431 -27.14042,-10.32335 6.31796,-16.60431 -18.51912,-7.04874 -6.31797,16.60431 z"
         style="fill:none;"
         id="path4411"
         inkscape:connector-curvature="0" />
      <path stroke="purple"
         id="path4415"
         transform="translate(0,52.362161)"
         d="m 756.53125,257.82227 c -1.3214,-0.0138 -2.55049,0.18566 -3.66992,0.61132 -29.12924,11.08187 -24.54084,70.8024 -17.63086,93.41016 -57.15461,21.91245 -114.30245,43.83635 -171.45117,65.75977 0.16291,0.16706 0.31915,0.36772 0.45312,0.6289 h -0.002 c 0.58926,1.14882 0.47058,0.90103 0.62109,1.3418 0.0912,0.0851 0.18239,0.1816 0.27149,0.29297 l 0.71289,0.89258 c 0.46652,0.58316 0.55513,1.12114 0.42383,1.50781 0.47961,0.2049 0.71236,0.59801 0.16796,1.125 -0.0444,0.043 -0.0649,0.0927 -0.0918,0.14062 0.0983,0.0812 0.0403,0.0288 0.18359,0.14844 -0.004,0.0578 -0.0317,0.28542 -0.0684,0.52148 0.20219,0.27649 0.30197,0.58538 0.33985,0.90821 0.0393,10e-4 0.0801,-0.004 0.11914,-0.002 0.009,0.22773 0.0116,0.4563 0.0254,0.68359 0.009,0.0212 0.0267,0.0528 0.0332,0.0703 10e-4,0.004 5.7e-4,0.004 0.002,0.008 0.0105,-0.054 0.0236,-0.0681 0.0254,-0.10351 0.002,-0.05 -0.0552,-0.19233 -0.0351,-0.14649 0.19304,0.44097 0.16229,0.38057 0.22265,0.78321 0.0161,0.10755 0.0167,0.18999 0.0156,0.26758 0.24934,0.1917 0.35774,0.34185 0.36133,0.70312 0.12405,0.13274 0.22267,0.25512 0.27539,0.36523 -0.0611,-0.11039 -0.15033,-0.22158 -0.27539,-0.34765 4e-4,0.1442 -0.003,0.29247 -0.0293,0.53125 0.25717,0.0606 0.34333,0.0169 0.33789,-0.0762 0.0495,0.13921 0.0709,0.29816 0.0488,0.5039 0.27842,0.39063 0.35153,0.50029 0.38476,1.1543 0.027,0.53202 -0.22371,0.5961 0.041,0.49609 0.27892,0.5664 0.31846,1.16685 0.27148,1.78125 0.0312,0.039 0.0515,0.0808 0.0781,0.1211 0.29565,0.0756 0.47905,0.29952 0.39844,0.77734 -0.12211,0.72372 0.39493,1.47707 0.27734,2.21094 -0.006,0.0364 -0.0209,0.0704 -0.0312,0.10547 0.0903,0.37783 0.0267,0.77483 -0.0117,1.15039 0.0113,0.0532 0.004,0.16651 -0.008,0.27929 0.21266,0.31545 0.29334,0.44414 0.33398,0.59571 0.17056,0.34351 0.26934,0.66164 0.0801,0.74609 -0.002,8.5e-4 -0.004,10e-4 -0.006,0.002 -0.0414,0.0931 -0.0849,0.18525 -0.1289,0.27735 0.008,0.001 0.0157,4.3e-4 0.0234,0.002 0.0727,0.0144 0.0465,0.10925 0.0215,0.20313 56.61218,-21.76645 113.95415,-43.91494 173.14453,-66.98438 9.67582,20.4987 45.62386,68.38748 74.80859,57.28711 14.31949,-5.44844 17.4634,-50.25687 -0.4082,-97.2207 -16.47538,-43.30332 -45.06368,-73.35145 -60.65625,-73.51367 z m -188.9707,169.57031 c -2e-5,-0.005 4e-5,-0.0129 0,-0.0176 -0.16922,-0.18107 -0.2995,-0.30212 -0.37305,-0.36133 5e-5,0.006 -6e-5,0.01 0,0.0156 0.14531,0.14207 0.27266,0.26208 0.37305,0.36328 z M 756.9375,278.19727 c 11.14144,-0.32735 33.79354,23.62328 46.94922,58.19921 14.04198,36.88099 11.95032,71.9102 1.80273,75.76758 -14.41199,5.48544 -65.05676,-40.035 -45.88086,-47.5 -0.13875,-6.95623 -1.92512,-13.57023 -7.38281,-19.38867 -18.93539,7.22449 -12.38489,-61.04286 2.44336,-66.68555 0.63423,-0.24166 1.3256,-0.37075 2.06836,-0.39257 z M 554.10742,429.45898 c -0.0198,-0.006 0.0608,0.15773 0.16211,0.35547 0.006,-0.0311 0.0133,-0.0713 0.0195,-0.10351 -0.0387,-0.056 -0.0734,-0.11465 -0.11328,-0.16992 -0.0389,-0.0539 -0.0604,-0.0796 -0.0684,-0.082 z m 12.46289,4.26758 c 0.0202,0.0949 0.0386,0.19019 0.0586,0.28516 0.0737,0.20925 0.0814,0.22026 -0.0586,-0.28516 z m 1.0586,4.03125 c 6.7e-4,0.002 10e-4,0.004 0.002,0.006 0.002,4.2e-4 0.004,0.001 0.006,0.002 -0.002,-0.003 -0.005,-0.006 -0.008,-0.008 z m -120.4336,28.34766 -0.002,0.002 c 0.0199,0.0148 0.0353,0.0243 0.0547,0.0391 0.0142,0.005 0.0288,0.009 0.043,0.0137 -0.0267,-0.0175 0.0301,0.0111 -0.0625,-0.043 -0.007,-0.003 -0.0253,-0.009 -0.0332,-0.0117 z m -15.24609,2.06055 c -92.68989,35.53755 -185.39266,71.04299 -278.13867,106.44336 -8.53804,9.57407 -5.11444,17.5845 7.52148,19.76757 95.11448,-36.42115 186.2551,-71.11572 277.62695,-106.03515 -0.12647,-0.0657 -0.25162,-0.12918 -0.38281,-0.20703 -0.0244,-0.0145 0.0523,0.0233 0.0781,0.0351 -0.49931,-0.40916 -0.81262,-0.52971 -0.91602,-0.85351 -0.11358,-0.10488 -0.15563,-0.42551 -0.14453,-0.6875 -0.0498,-0.0333 -0.12648,-0.0946 -0.28711,-0.29883 -0.53361,-0.67797 0.006,-0.0914 0.002,-0.10352 -0.13419,-0.36226 -0.34706,-0.6908 -0.49218,-1.04883 -0.0154,-0.038 0.0114,-0.0825 0.0176,-0.12304 0.001,0.003 0.003,0.005 0.004,0.008 0.0402,-0.0565 0.20251,0.20759 0.17188,0.14062 -0.6229,-1.36135 -0.62274,-0.58922 -0.56446,-1.35742 0.0106,-0.0557 0.003,-0.11761 0.0293,-0.16797 0.002,-0.005 0.22042,0.38399 0.11719,0.15235 -0.10687,-0.23982 -0.30848,-0.41556 0.002,-0.10547 -0.17901,-0.3826 -0.70354,-0.82206 -0.47266,-1.17578 0.005,-0.008 0.008,0.0148 0.01,0.0273 -0.0232,-0.0271 0.003,4.3e-4 0.16602,0.12891 -0.19752,-0.34997 -0.44198,-0.67861 -0.59376,-1.05078 -0.0425,-0.10423 0.0174,-0.22402 0.0293,-0.33594 0.007,-0.0593 -0.0121,-0.14067 0.0312,-0.17774 -0.0952,-0.15055 -0.18924,-0.32399 -0.26367,-0.52343 -0.14028,0.15542 -0.13023,-0.0976 -0.0918,-0.38672 -0.009,-0.074 -0.0151,-0.1466 -0.01,-0.2207 -0.0257,-0.0271 -0.0419,-0.0413 -0.0684,-0.0703 -0.20749,0.0351 -0.32138,7e-5 -0.16016,-0.20898 -0.22292,-0.27886 -0.40849,-0.57938 -0.26562,-0.75586 0.008,-0.01 0.0212,-0.0288 0.0293,-0.0391 -0.15585,-0.14842 -0.31234,-0.27811 -0.30078,-0.39649 0.008,-0.0842 0.20381,0.26144 0.17578,0.18164 -0.129,-0.36721 -0.32254,-0.70656 -0.48437,-1.06054 0.005,-0.0219 0.003,-0.0536 0.0137,-0.0664 -0.17099,-0.23736 -0.39311,-0.54076 -0.30664,-0.71094 -0.15753,-0.264 -0.28987,-0.54475 -0.4043,-0.83008 -0.14012,-0.34941 -0.23837,-0.71317 -0.35742,-1.07031 -0.19375,-0.58127 -0.15744,-1.04732 0.002,-1.37304 -0.0466,-0.0519 -0.0923,-0.10262 -0.14648,-0.1836 -0.62068,-0.92814 -0.69097,-0.79838 -0.63281,-1.69336 0.009,-0.0547 0.0301,-0.17799 0.0508,-0.30078 -0.10386,-0.0365 -0.14794,-0.10822 -0.0859,-0.22852 0.0155,-0.03 0.0296,-0.0496 0.0449,-0.0781 -0.21767,-0.35714 -0.4733,-0.71975 -0.31054,-1.02344 -0.0119,-0.0943 -0.021,-0.18926 -0.0352,-0.2832 -0.0538,-0.35806 -0.1182,-0.71317 -0.17773,-1.07031 -0.0356,-0.21357 -0.0405,-0.40547 -0.0293,-0.58203 z m 0.55273,2.95898 c 0.0273,0.0448 0.0434,0.0883 0.0684,0.13281 5.8e-4,-0.003 0.003,-0.018 0.004,-0.0195 0.003,-0.01 0.0184,0.0108 0.0273,0.0156 l 0.22852,0.20312 c 0.10274,-0.005 0.23032,-0.0464 0.34961,-0.0703 -0.014,-0.0932 -0.0347,-0.18266 -0.0469,-0.27734 5.5e-4,-0.0336 -0.0126,-0.0916 -0.0195,-0.13868 -0.10613,-0.0953 -0.20653,-0.21031 -0.29492,-0.35742 -0.10085,0.13834 -0.20569,0.30471 -0.31641,0.51172 z m 0.0684,0.13281 c -0.005,0.0225 -0.0154,0.103 -0.0273,0.17383 0.0333,0.0117 0.0801,0.015 0.125,0.0195 -0.0267,-0.0638 -0.0611,-0.12815 -0.0977,-0.19336 z m 2.59961,8.47266 c 0.0585,0.0732 0.0989,0.14185 0.16016,0.20898 0.0285,-0.005 0.0396,0.002 0.0723,-0.006 0.0127,-0.0863 0.0362,-0.17247 0.0742,-0.25586 0.0276,-0.0604 0.005,0.0689 -0.0234,0.24415 0.0674,-0.0187 0.15457,-0.0561 0.23243,-0.084 -0.0119,-0.0256 -0.0256,-0.0455 -0.0371,-0.0723 -0.0501,-0.11641 -0.10235,-0.23225 -0.15039,-0.3496 -0.11739,0.10945 -0.27326,0.24331 -0.32813,0.31445 z m 0.23828,0.5 c 0.0155,0.13141 0.0455,0.26265 0.0918,0.38672 0.0444,-0.0491 0.10128,-0.13444 0.17969,-0.2793 0.15795,0.10349 -0.0231,-0.0616 -0.24414,-0.29101 -0.01,0.0625 -0.0188,0.11957 -0.0273,0.18359 z m 0.72266,2.3457 c 0.003,0.016 0.005,0.0248 0.0117,0.0352 0.0355,0.0567 0.14038,0.2249 0.11719,0.16211 -0.0327,-0.0886 -0.10567,-0.17021 -0.12891,-0.19727 z m -1.82813,-5.36523 c 0.0228,0.10482 0.0426,0.21974 0.0742,0.28711 -0.002,-0.0218 -0.0107,-0.0462 -0.0137,-0.0684 0.0327,0.0523 0.0934,0.0869 0.16406,0.11523 -0.0201,-0.0485 -0.0389,-0.10084 -0.0508,-0.1582 -0.0434,-0.0447 -0.096,-0.087 -0.14062,-0.13672 -0.001,0.01 -0.003,0.0157 -0.004,0.0254 -0.003,-0.0145 -0.006,-0.0284 -0.01,-0.043 -0.007,-0.008 -0.0127,-0.0136 -0.0195,-0.0215 z m 0.0508,0.40625 c 0.002,0.0204 0.008,0.037 0.0176,0.0527 0.0318,0.0513 0.14313,0.19417 0.11524,0.14063 -0.021,-0.0403 -0.0874,-0.12996 -0.13281,-0.19336 z m 1.42578,3.54492 c 0.0311,0.0736 -0.067,0.51895 0.14453,0.2207 -0.0399,-0.0566 -0.0929,-0.14027 -0.14453,-0.2207 z"
         style="fill:#231f20;fill-opacity:1;fill-rule:evenodd;"
         inkscape:connector-curvature="0" />
      <path stroke="purple"
         d="m 237.73553,547.03628 9.02831,23.7178 -9.93484,3.78338 22.55227,59.28525 9.93483,-3.77413 6.14221,16.12329 4.95817,-1.88706 9.20406,24.18957 -18.51913,7.03948 -6.31796,-16.59506 -27.13117,10.32335 6.30872,16.59506 -18.51913,7.04874 -6.31796,-16.59506 -4.19965,1.59105 -9.01905,-23.70855 6.49372,-2.46983 -22.56151,-59.2945 -6.49372,2.46983 -6.13296,-16.12329 -4.96742,1.88706 -9.20406,-24.18956 18.51913,-7.04874 6.31796,16.60431 27.13117,-10.32335 -6.30872,-16.60431 18.51913,-7.04874 6.31796,16.60431 z"
         style="fill:#231f20;fill-opacity:1;fill-rule:evenodd;"
         id="path4419"
         inkscape:connector-curvature="0" />
      <path stroke="purple"
         d="m 237.73553,547.03628 9.02831,23.7178 -9.93484,3.78338 22.55227,59.28525 9.93483,-3.77413 6.14221,16.12329 4.95817,-1.88706 9.20406,24.18957 -18.51913,7.03948 -6.31796,-16.59506 -27.13117,10.32335 6.30872,16.59506 -18.51913,7.04874 -6.31796,-16.59506 -4.19965,1.59105 -9.01905,-23.70855 6.49372,-2.46983 -22.56151,-59.2945 -6.49372,2.46983 -6.13296,-16.12329 -4.96742,1.88706 -9.20406,-24.18956 18.51913,-7.04874 6.31796,16.60431 27.13117,-10.32335 -6.30872,-16.60431 18.51913,-7.04874 6.31796,16.60431 z"
         style="fill:none;"
         id="path4423"
         inkscape:connector-curvature="0" />
      <path stroke="purple"
         d="m 505.93129,516.62302 3.04335,-20.7577 c 0.24051,-1.54481 0,-2.7381 -0.72152,-3.57987 -0.71228,-0.83253 -1.66506,-1.2488 -2.85835,-1.2488 -1.4338,0 -2.7751,0.41627 -4.02389,1.2488 -1.25804,0.84177 -2.00732,2.26632 -2.23857,4.29214 l -2.8676,20.76695 v 1.24879 c 0,1.07304 0.29601,1.97032 0.89728,2.68259 0.59202,0.71228 1.3783,1.07304 2.32183,1.07304 2.15532,0 3.82038,-0.77703 5.01367,-2.32183 0.84178,-1.08228 1.31354,-2.21082 1.4338,-3.40411 m -12.41392,38.84206 c -5.91095,4.08864 -9.24106,6.70647 -10.44361,13.86622 6.76198,2.08132 14.08823,3.11735 21.96025,3.11735 5.48543,0 11.18362,-0.56427 17.09457,-1.69281 5.9017,-1.13778 10.70262,-2.59933 14.40274,-4.38464 l 2.14607,-1.08229 c 1.66506,-0.95278 2.50684,-1.90556 2.50684,-2.85835 0,-0.36076 -0.0925,-0.86028 -0.26826,-1.51705 -0.18501,-0.66602 -0.38851,-1.28579 -0.62902,-1.87781 l -2.14608,-6.26246 c -0.48101,-1.31355 -1.31354,-1.97032 -2.50683,-1.97032 -0.83253,0 -1.85006,0.23126 -3.04335,0.71227 l -3.93139,1.4338 c -3.94063,1.4338 -7.60375,2.41433 -11.00787,2.95085 -3.40411,0.53652 -7.36325,0.80478 -11.90515,0.80478 -4.3199,0 -8.39003,-0.41626 -12.22891,-1.23954 m 23.50504,-79.82095 h 10.37885 c 0.95278,0 1.75756,0.38852 2.41433,1.16554 0.65678,0.77703 0.86953,1.70206 0.62902,2.7751 l -5.01366,35.06793 c -0.23126,0.95278 -0.35152,2.09057 -0.35152,3.40412 0,1.78531 0.35152,3.24686 1.07304,4.38464 0.71227,1.12854 2.08132,1.69281 4.11639,1.69281 4.29214,0 8.11252,-2.34958 11.45189,-7.06724 3.33936,-4.70841 5.00441,-10.70261 5.00441,-17.9826 0,-10.37886 -3.33936,-19.20365 -10.01808,-26.48365 -7.75177,-8.46403 -18.42663,-12.70068 -32.02459,-12.70068 -13.71821,0 -25.05909,4.59741 -34.00414,13.77372 -8.94506,9.18556 -13.42221,20.7577 -13.42221,34.72567 0,13.4777 4.23665,24.74458 12.70993,33.80989 1.59106,1.70206 3.27461,3.24686 5.04142,4.65291 -3.0711,1.89631 -7.62226,5.23567 -10.4436,13.20944 -2.50684,-1.84081 -4.92117,-3.88513 -7.21524,-6.1422 -12.58043,-12.34917 -18.87989,-27.52893 -18.87989,-45.53004 0,-18.01961 6.29946,-33.19937 18.87989,-45.54854 12.58967,-12.33991 28.30595,-18.51912 47.14884,-18.51912 16.82632,0 30.89604,4.83791 42.22767,14.49524 11.93291,10.13834 17.89936,23.32003 17.89936,39.54508 0,11.33163 -3.04335,20.99821 -9.13006,28.99048 -6.91923,9.06531 -16.22505,13.59796 -27.90819,13.59796 -3.94063,0 -6.89148,-0.41627 -8.8618,-1.25804 -1.97032,-0.83253 -3.67238,-2.26633 -5.09692,-4.29215 -0.83253,-1.19329 -1.3783,-1.78531 -1.60956,-1.78531 -0.12025,0 -1.85006,0.88803 -5.19867,2.68259 -3.33937,1.78531 -7.63151,2.68259 -12.87644,2.68259 -5.37443,0 -9.60182,-1.5818 -12.70993,-4.74541 -3.09885,-3.15435 -4.64365,-7.65926 -4.64365,-13.50545 l 0.52726,-5.9017 2.50684,-18.97239 c 0.96203,-7.03949 3.19136,-12.32142 6.71572,-15.83654 3.51512,-3.51512 8.19578,-5.27268 14.04198,-5.27268 2.8676,0 5.42993,0.41627 7.69626,1.2488 0.83253,0.2405 1.60955,0.56427 2.33108,0.98053 0.71227,0.41626 1.31354,0.62902 1.78531,0.62902 0.60127,0 1.07303,-0.17576 1.4338,-0.53652 1.30429,-0.95278 2.44208,-1.4338 3.39486,-1.4338"
         style="fill:#231f20;fill-opacity:1;fill-rule:nonzero;"
         id="path4491"
         inkscape:connector-curvature="0" />
      <path stroke="purple"
         d="m 680.49897,709.02405 c -10.43435,23.8658 -34.24466,40.54411 -61.94935,40.54411 -27.71393,0 -51.52424,-16.67831 -61.94934,-40.54411 z m -121.26235,-5.23568 58.51748,-118.17274 58.50822,118.17274 h -5.9387 L 617.7541,597.62254 565.18457,703.78837 Z m -228.18671,0 58.51748,-118.17274 58.51748,118.17274 h -5.94795 L 389.56739,597.62254 336.99786,703.78837 Z m 119.6713,5.23568 c -10.43436,23.8658 -34.24466,40.54411 -61.94935,40.54411 -27.71393,0 -51.52424,-16.67831 -61.94934,-40.54411 z"
         style="fill:#231f20;fill-opacity:1;fill-rule:evenodd;"
         id="path4495"
         inkscape:connector-curvature="0" />
      <path stroke="purple"
         d="m 499.524,540.35478 c -18.13061,0 -32.87561,14.56924 -33.15312,32.6351 h -81.92076 v 6.58622 l 92.30886,18.04736 c 5.93871,5.61494 13.94948,9.05606 22.76502,9.05606 7.65926,0 14.708,-2.59934 20.32294,-6.96549 L 622.86767,579.5761 v -6.58622 h -90.1813 c -0.0185,-0.73077 -0.0555,-1.46155 -0.111,-2.18307 -1.65581,0.64752 -3.42262,1.23029 -5.22643,1.6558 -1.89631,0.45327 -3.75562,0.80478 -5.49468,1.07304 -0.009,12.32141 -10.00884,22.3025 -22.33026,22.3025 -12.33066,0 -22.321,-9.99034 -22.321,-22.321 0,-12.33067 9.99034,-22.33026 22.321,-22.33026 3.57062,0 6.94699,0.84178 9.94409,2.34033 3.26536,-0.43476 6.40122,-0.98978 8.18653,-1.66505 1.7113,-0.64753 3.41336,-1.4338 4.91191,-2.19233 -5.96645,-5.76294 -14.08822,-9.31506 -23.04253,-9.31506"
         style="fill:#231f20;fill-opacity:1;fill-rule:evenodd;"
         id="path4499"
         inkscape:connector-curvature="0" />
    </g>
  </g>
</svg>
